
<!-- Generator: visioncortex VTracer 0.6.4 -->
<svg version="1.1" xmlns="http://www.w3.org/2000/svg" viewBox="0 0 1414 1413" preserveAspectRatio="xMidYMid meet">
<path d="M0 0 C48.51 0 97.02 0 147 0 C147.33 102.3 147.66 204.6 148 310 C148 208.36 148 106.72 148 2 C148.33 2 148.66 2 149 2 C149.33 101.66 149.66 201.32 150 304 C152.114 302.155 152.114 302.155 152.875 299.75 C154.557 295.638 156.859 292.141 160 289 C160.33 288.01 160.66 287.02 161 286 C161.66 285.67 162.32 285.34 163 285 C163.33 284.175 163.66 283.35 164 282.5 C165 280 165 280 167 279 C167.268 278.257 167.536 277.515 167.812 276.75 C169.271 273.372 171.382 271.553 174 269 C174.676 267.671 175.342 266.338 176 265 C176.856 263.855 177.751 262.739 178.68 261.652 C179.455 260.745 179.455 260.745 180.246 259.818 C180.784 259.198 181.321 258.577 181.875 257.938 C182.405 257.313 182.935 256.688 183.48 256.045 C186.131 252.963 188.65 250.341 192 248 C193.349 246.346 194.681 244.678 196 243 C197.643 241.31 199.315 239.648 201 238 C201.743 237.236 202.485 236.471 203.25 235.684 C204.054 234.86 204.859 234.036 205.688 233.188 C206.454 232.397 207.221 231.607 208.012 230.793 C210 229 210 229 212 229 C213.155 227.573 214.31 226.144 215.457 224.711 C218.234 221.632 221.643 219.402 225 217 C227.115 215.372 229.228 213.739 231.336 212.102 C233 211 233 211 235 211 C236.338 209.671 237.67 208.337 239 207 C240.82 205.701 242.676 204.451 244.562 203.25 C245.513 202.636 246.463 202.023 247.441 201.391 C250 200 250 200 253 200 C253.66 199.34 254.32 198.68 255 198 C255.66 197.34 256.32 196.68 257 196 C257.99 196 258.98 196 260 196 C261.021 195.021 262.021 194.02 263 193 C263.99 192.67 264.98 192.34 266 192 C266.66 192.33 267.32 192.66 268 193 C268.33 192.01 268.66 191.02 269 190 C271.563 188.812 271.563 188.812 274 188 C274.33 188.33 274.66 188.66 275 189 C275.66 188.01 276.32 187.02 277 186 C279.979 184.847 280.866 184.955 284 186 C284.33 185.01 284.66 184.02 285 183 C288.062 181.812 288.062 181.812 291 181 C291.33 181.33 291.66 181.66 292 182 C292.351 181.546 292.701 181.092 293.062 180.625 C295.771 178.353 298.608 177.832 302 177 C302 177.66 302 178.32 302 179 C302.639 178.361 303.279 177.721 303.938 177.062 C307.527 174.645 309.882 174.455 314.109 174.273 C315.045 174.138 315.045 174.138 316 174 C316.33 173.34 316.66 172.68 317 172 C318.848 171.367 318.848 171.367 321.062 170.875 C322.163 170.624 322.163 170.624 323.285 170.367 C323.851 170.246 324.417 170.125 325 170 C325 170.66 325 171.32 325 172 C326.98 171.67 328.96 171.34 331 171 C331 170.34 331 169.68 331 169 C332.623 168.638 334.249 168.285 335.875 167.938 C336.78 167.74 337.685 167.543 338.617 167.34 C341 167 341 167 343 168 C343.33 167.34 343.66 166.68 344 166 C344 166.66 344 167.32 344 168 C345.65 167.67 347.3 167.34 349 167 C349 166.34 349 165.68 349 165 C349.664 164.939 350.328 164.879 351.012 164.816 C357.549 164.201 357.549 164.201 364 163 C364 163.66 364 164.32 364 165 C364.66 164.67 365.32 164.34 366 164 C369.63 164 373.26 164 377 164 C377 109.88 377 55.76 377 0 C425.84 0 474.68 0 525 0 C525 2.97 525 5.94 525 9 C523.35 9.33 521.7 9.66 520 10 C520 10.66 520 11.32 520 12 C518.711 12.363 517.418 12.715 516.125 13.062 C515.406 13.26 514.686 13.457 513.945 13.66 C512 14 512 14 510 13 C509.67 13.99 509.34 14.98 509 16 C508.01 16.33 507.02 16.66 506 17 C505.34 16.67 504.68 16.34 504 16 C503.906 16.574 503.812 17.147 503.715 17.738 C502.836 20.518 501.51 22.03 499.562 24.188 C498.945 24.882 498.328 25.577 497.691 26.293 C496 28 496 28 494 29 C493.67 29.99 493.34 30.98 493 32 C492.34 32.66 491.68 33.32 491 34 C490.691 34.804 490.381 35.609 490.062 36.438 C489 39 489 39 487.438 40.375 C485.185 42.921 485.348 45.696 485 49 C484.274 52.423 483.237 55.726 482 59 C481.34 59.33 480.68 59.66 480 60 C478.294 69.019 478.866 78.569 478.898 87.722 C478.899 89.284 478.9 90.845 478.901 92.407 C478.904 96.669 478.914 100.931 478.925 105.192 C478.935 109.799 478.94 114.407 478.945 119.014 C478.958 129.069 478.979 139.124 479.002 149.179 C479.016 155.458 479.028 161.737 479.04 168.016 C479.075 185.408 479.111 202.799 479.154 220.191 C479.156 221.302 479.159 222.413 479.162 223.558 C479.165 224.671 479.167 225.785 479.17 226.932 C479.176 229.189 479.181 231.446 479.187 233.702 C479.19 234.822 479.193 235.941 479.195 237.094 C479.24 255.264 479.271 273.434 479.296 291.605 C479.322 310.267 479.36 328.93 479.408 347.592 C479.435 358.068 479.457 368.544 479.467 379.019 C479.476 387.93 479.494 396.842 479.526 405.753 C479.542 410.3 479.553 414.847 479.552 419.395 C479.55 423.555 479.562 427.715 479.585 431.875 C479.591 433.383 479.592 434.89 479.588 436.397 C479.582 438.441 479.597 440.486 479.612 442.531 C479.615 443.667 479.617 444.804 479.62 445.975 C480.045 449.357 481.11 451.205 483 454 C483.477 456.098 483.477 456.098 483.625 458.062 C484.042 463.427 484.042 463.427 486.5 468 C488 470 488 470 488.5 472.062 C489.119 474.461 490.238 475.311 492 477 C492.33 477.99 492.66 478.98 493 480 C493.99 480.66 494.98 481.32 496 482 C496.33 482.99 496.66 483.98 497 485 C498.629 486.379 500.297 487.713 502 489 C502.66 489.66 503.32 490.32 504 491 C505.651 492.026 507.32 493.023 509 494 C511.664 495.549 513.819 496.819 516 499 C518.197 499.677 518.197 499.677 520.625 500.125 C521.442 500.293 522.26 500.46 523.102 500.633 C523.728 500.754 524.355 500.875 525 501 C525.027 502.625 525.046 504.25 525.062 505.875 C525.074 506.78 525.086 507.685 525.098 508.617 C525 511 525 511 524 513 C517.325 513.025 510.65 513.043 503.974 513.055 C501.702 513.06 499.429 513.067 497.156 513.075 C493.897 513.088 490.638 513.093 487.379 513.098 C486.356 513.103 485.333 513.108 484.279 513.113 C483.338 513.113 482.397 513.113 481.428 513.114 C480.595 513.116 479.763 513.118 478.905 513.12 C477 513 477 513 476 512 C474.605 511.936 473.207 511.943 471.811 511.978 C470.911 511.998 470.01 512.018 469.082 512.039 C468.09 512.066 467.097 512.093 466.074 512.121 C463.933 512.17 461.792 512.219 459.65 512.269 C458.514 512.296 457.378 512.324 456.208 512.353 C438.082 512.788 419.95 513.146 401.819 513.233 C399.901 513.244 397.984 513.261 396.066 513.283 C393.407 513.313 390.749 513.323 388.09 513.328 C387.308 513.34 386.526 513.353 385.72 513.365 C380.496 513.344 380.496 513.344 378.301 511.822 C376.501 509.301 376.627 507.578 376.631 504.493 C376.622 502.765 376.622 502.765 376.613 501.002 C376.621 499.73 376.63 498.459 376.639 497.149 C376.638 495.789 376.635 494.43 376.631 493.07 C376.625 489.326 376.637 485.582 376.652 481.837 C376.665 477.802 376.66 473.768 376.658 469.733 C376.657 462.74 376.666 455.747 376.683 448.753 C376.707 438.642 376.715 428.531 376.719 418.42 C376.725 402.017 376.745 385.613 376.774 369.21 C376.801 353.273 376.822 337.336 376.835 321.399 C376.836 320.417 376.837 319.435 376.838 318.424 C376.842 313.498 376.845 308.572 376.849 303.646 C376.88 262.764 376.933 221.882 377 181 C373.7 180.67 370.4 180.34 367 180 C367 180.66 367 181.32 367 182 C366.01 182 365.02 182 364 182 C364 181.34 364 180.68 364 180 C362.68 180.33 361.36 180.66 360 181 C360 181.66 360 182.32 360 183 C359.402 183.144 358.804 183.289 358.188 183.438 C356.438 183.887 354.713 184.429 353 185 C351.272 185.068 349.542 185.085 347.812 185.062 C346.911 185.053 346.01 185.044 345.082 185.035 C344.051 185.018 344.051 185.018 343 185 C342.67 185.66 342.34 186.32 342 187 C337.891 188.422 334.34 189.235 330 189 C325.524 189 325.315 189.488 322 192 C319.582 192.633 317.495 193 315 193 C314.216 193.474 313.433 193.949 312.625 194.438 C310.309 195.816 308.615 196.516 306 197 C306 196.34 306 195.68 306 195 C305.34 195 304.68 195 304 195 C304 195.99 304 196.98 304 198 C298.375 200 298.375 200 295 200 C293.979 200.979 292.979 201.98 292 203 C291.01 203.33 290.02 203.66 289 204 C288.67 203.67 288.34 203.34 288 203 C287.618 203.438 287.237 203.877 286.844 204.328 C284.571 206.389 282.287 207.476 279.5 208.75 C278.541 209.199 277.582 209.647 276.594 210.109 C274 211 274 211 271 210 C270.897 210.639 270.794 211.279 270.688 211.938 C270.461 212.618 270.234 213.299 270 214 C269.01 214.33 268.02 214.66 267 215 C266.67 214.67 266.34 214.34 266 214 C264.515 215.98 264.515 215.98 263 218 C261.68 217.67 260.36 217.34 259 217 C258.938 217.598 258.876 218.196 258.812 218.812 C257.653 221.935 255.906 222.421 253 224 C251.163 225.311 249.355 226.656 247.551 228.012 C246 229 246 229 244 229 C242.31 230.643 240.648 232.314 239 234 C237.247 235.459 235.476 236.897 233.688 238.312 C228.797 242.268 224.348 246.463 220 251 C215.368 255.737 215.368 255.737 212.812 257.562 C210.88 258.887 210.88 258.887 210 261 C208.766 263.467 207.186 264.361 205 266 C204.321 267.327 203.656 268.661 203 270 C202.032 271.418 201.031 272.814 200 274.188 C199.484 274.882 198.969 275.577 198.438 276.293 C197 278 197 278 195 279 C194.67 279.99 194.34 280.98 194 282 C193.34 282.33 192.68 282.66 192 283 C191.317 284.66 190.654 286.328 190 288 C188.915 289.837 187.787 291.649 186.625 293.438 C186.005 294.394 185.385 295.35 184.746 296.336 C184.17 297.215 183.594 298.094 183 299 C182.578 299.652 182.157 300.305 181.723 300.977 C180.272 303.199 178.883 305.117 177 307 C176.67 307.846 176.34 308.691 176 309.562 C175 312 175 312 173 313 C172.65 314.663 172.318 316.33 172 318 C171.34 318.99 170.68 319.98 170 321 C169.67 321.866 169.34 322.733 169 323.625 C168 326 168 326 166 327 C165.856 327.949 165.711 328.898 165.562 329.875 C164.938 333.345 164.348 333.652 162 336 C161.641 337.996 161.305 339.995 161 342 C160.34 342.33 159.68 342.66 159 343 C158.783 344.671 158.783 344.671 158.562 346.375 C157.948 350.334 157.589 350.411 155 353 C154.619 355.326 154.287 357.661 154 360 C153.35 361.341 152.684 362.675 152 364 C151.856 365.011 151.711 366.021 151.562 367.062 C151 370 151 370 149.489 371.337 C147.363 373.712 147.621 375.388 147.615 378.542 C147.605 379.694 147.595 380.847 147.585 382.034 C147.59 383.3 147.595 384.565 147.599 385.869 C147.594 387.214 147.587 388.56 147.578 389.905 C147.563 392.803 147.557 395.7 147.559 398.597 C147.561 403.177 147.541 407.757 147.519 412.337 C147.478 421.231 147.459 430.125 147.442 439.019 C147.42 450.34 147.387 461.661 147.335 472.982 C147.315 477.537 147.306 482.091 147.304 486.646 C147.302 489.477 147.291 492.308 147.278 495.139 C147.271 497.081 147.275 499.023 147.279 500.966 C147.269 502.695 147.269 502.695 147.258 504.458 C147.257 505.462 147.255 506.466 147.253 507.5 C147 510 147 510 145 513 C142.526 513.378 142.526 513.378 139.344 513.381 C137.539 513.394 137.539 513.394 135.698 513.407 C134.358 513.401 133.018 513.395 131.678 513.388 C130.272 513.392 128.866 513.398 127.46 513.404 C123.636 513.418 119.812 513.412 115.987 513.403 C111.991 513.395 107.995 513.402 103.998 513.407 C97.287 513.413 90.575 513.405 83.863 513.391 C76.095 513.375 68.328 513.38 60.561 513.397 C53.9 513.41 47.239 513.412 40.579 513.404 C36.597 513.4 32.615 513.399 28.633 513.409 C24.89 513.418 21.148 513.412 17.405 513.394 C16.029 513.39 14.652 513.391 13.276 513.398 C11.403 513.406 9.529 513.394 7.656 513.381 C6.606 513.38 5.556 513.379 4.474 513.378 C3.657 513.253 2.841 513.128 2 513 C-0.802 508.798 -0.145 505.999 0 501 C3.63 500.67 7.26 500.34 11 500 C11.33 499.01 11.66 498.02 12 497 C13.667 496.333 15.333 495.667 17 495 C21.771 491.577 25.014 487.612 28.484 482.891 C30 481 30 481 32 480 C32.362 478.674 32.688 477.339 33 476 C34.223 473.189 35.534 470.428 36.844 467.656 C38.032 465.129 38.032 465.129 38.531 462.844 C39 461 39 461 41 458 C42.681 455.11 43.199 453.265 43 449.938 C42.868 444.223 43.119 437.27 46.024 432.22 C47.281 429.361 47.251 427.128 47.252 424.006 C47.26 422.153 47.26 422.153 47.267 420.263 C47.263 418.89 47.259 417.518 47.254 416.145 C47.256 414.688 47.259 413.231 47.263 411.775 C47.272 407.767 47.268 403.759 47.261 399.751 C47.257 395.43 47.264 391.11 47.269 386.789 C47.278 378.324 47.276 369.858 47.271 361.392 C47.266 354.513 47.265 347.635 47.268 340.756 C47.268 339.778 47.268 338.8 47.269 337.792 C47.269 335.806 47.27 333.819 47.271 331.832 C47.276 313.192 47.27 294.552 47.259 275.911 C47.25 259.907 47.252 243.904 47.261 227.9 C47.271 209.327 47.276 190.755 47.27 172.182 C47.269 170.203 47.268 168.223 47.268 166.244 C47.267 165.27 47.267 164.296 47.267 163.293 C47.265 156.42 47.268 149.547 47.273 142.675 C47.278 134.303 47.277 125.93 47.266 117.558 C47.261 113.284 47.259 109.01 47.265 104.737 C47.271 100.827 47.268 96.918 47.257 93.008 C47.255 91.591 47.256 90.174 47.261 88.757 C47.267 86.836 47.26 84.915 47.252 82.994 C47.251 81.391 47.251 81.391 47.251 79.756 C46.997 76.965 46.362 75.406 45 73 C44.621 70.52 44.621 70.52 44.438 67.812 C44.361 66.85 44.285 65.887 44.207 64.895 C44.076 63.059 43.948 61.223 43.824 59.387 C43.758 58.599 43.693 57.811 43.625 57 C43.576 56.299 43.527 55.597 43.477 54.875 C43.141 52.883 43.141 52.883 41.488 51.496 C39.281 49.277 39.636 46.916 39.379 43.93 C38.819 41.077 37.166 39.827 35 38 C34.67 37.01 34.34 36.02 34 35 C31.476 31.554 28.719 28.294 26 25 C25.443 24.305 24.886 23.61 24.312 22.895 C21.481 19.437 18.981 17.161 15 15 C14.67 14.34 14.34 13.68 14 13 C13.01 13.495 13.01 13.495 12 14 C9.981 13.394 7.977 12.731 6 12 C6 11.34 6 10.68 6 10 C3.03 9.505 3.03 9.505 0 9 C0 6.03 0 3.06 0 0 Z M41 47 C42 49 42 49 42 49 Z M482 50 C483 52 483 52 483 52 Z M481 53 C482 55 482 55 482 55 Z M45 63 C46 67 46 67 46 67 Z M477 72 C477 190.8 477 309.6 477 432 C477.33 432 477.66 432 478 432 C478 313.2 478 194.4 478 72 C477.67 72 477.34 72 477 72 Z M157 345 C158 347 158 347 158 347 Z M152 358 C153 360 153 360 153 360 Z M150 364 C151 366 151 366 151 366 Z M149 367 C150 369 150 369 150 369 Z M478 433 C478 435.64 478 438.28 478 441 C478.33 441 478.66 441 479 441 C479 438.36 479 435.72 479 433 C478.67 433 478.34 433 478 433 Z M45 440 C45 441.65 45 443.3 45 445 C45.33 445 45.66 445 46 445 C46 443.35 46 441.7 46 440 C45.67 440 45.34 440 45 440 Z M44 446 C45 449 45 449 45 449 Z M481 455 C482 458 482 458 482 458 Z M482 459 C483 461 483 461 483 461 Z M40 461 C41 463 41 463 41 463 Z M38 467 C39 469 39 469 39 469 Z " fill="#28368D" transform="translate(566,477)"/>
<path d="M0 0 C1.454 0.031 1.454 0.031 2.938 0.062 C2.938 0.723 2.938 1.382 2.938 2.062 C3.597 2.062 4.257 2.062 4.938 2.062 C5.268 1.402 5.597 0.743 5.938 0.062 C12.291 0.18 18.645 0.305 24.999 0.435 C27.161 0.478 29.323 0.52 31.485 0.56 C34.59 0.618 37.696 0.681 40.801 0.746 C41.77 0.763 42.738 0.78 43.737 0.797 C44.637 0.817 45.538 0.837 46.466 0.857 C47.655 0.88 47.655 0.88 48.868 0.904 C50.938 1.062 50.938 1.062 53.938 2.062 C53.938 1.402 53.938 0.743 53.938 0.062 C56.577 0.062 59.217 0.062 61.938 0.062 C61.938 0.723 61.938 1.382 61.938 2.062 C62.597 1.733 63.257 1.402 63.938 1.062 C68.782 0.901 73.166 1.108 77.938 2.062 C77.938 2.723 77.938 3.382 77.938 4.062 C80.248 4.392 82.558 4.723 84.938 5.062 C84.938 4.402 84.938 3.743 84.938 3.062 C85.928 3.062 86.918 3.062 87.938 3.062 C87.938 3.723 87.938 4.382 87.938 5.062 C88.928 4.856 89.918 4.65 90.938 4.438 C95.316 3.784 98.731 4.808 102.938 6.062 C102.938 6.723 102.938 7.382 102.938 8.062 C105.428 8.132 107.586 8.158 110 7.5 C112.345 6.97 113.66 7.351 115.938 8.062 C116.659 8.207 117.381 8.351 118.125 8.5 C118.723 8.686 119.321 8.871 119.938 9.062 C120.267 9.723 120.598 10.382 120.938 11.062 C122.134 11.021 123.33 10.98 124.562 10.938 C128.361 10.924 131.387 11.642 134.938 13.062 C134.938 13.723 134.938 14.382 134.938 15.062 C135.711 14.722 135.711 14.722 136.5 14.375 C140.157 13.906 142.633 15.555 145.938 17.062 C147.601 17.411 149.267 17.747 150.938 18.062 C153.53 19.174 154.922 20.047 156.938 22.062 C157.639 22.186 158.34 22.31 159.062 22.438 C163.05 23.304 166.347 25.171 169.938 27.062 C170.957 27.559 170.957 27.559 171.996 28.066 C173.938 29.062 173.938 29.062 176.938 31.062 C177.307 32.964 177.307 32.964 177.298 35.327 C177.304 36.669 177.304 36.669 177.311 38.038 C177.3 39.022 177.289 40.006 177.278 41.02 C177.279 42.054 177.279 43.088 177.279 44.154 C177.277 47.585 177.254 51.015 177.23 54.445 C177.225 56.819 177.221 59.193 177.218 61.566 C177.206 67.823 177.177 74.08 177.143 80.337 C177.113 86.718 177.099 93.099 177.084 99.48 C177.052 112.008 177.001 124.535 176.938 137.062 C176.277 137.062 175.618 137.062 174.938 137.062 C174.504 135.639 174.504 135.639 174.062 134.188 C173.169 131.01 173.169 131.01 170.938 129.062 C170.594 127.152 170.594 127.152 170.438 125 C170.273 123.701 170.108 122.401 169.938 121.062 C169.277 120.732 168.618 120.403 167.938 120.062 C167.604 118.062 167.271 116.062 166.938 114.062 C166.277 113.732 165.618 113.403 164.938 113.062 C164.572 111.738 164.244 110.402 163.938 109.062 C162.624 106.059 160.911 103.667 158.938 101.062 C156.079 96.665 156.079 96.665 155.438 93.938 C154.8 91.546 153.715 90.774 151.938 89.062 C150.576 87.082 149.242 85.082 147.938 83.062 C145.266 79.055 142.084 75.516 138.926 71.889 C136.476 69.036 134.574 66.464 132.938 63.062 C131.539 61.599 131.539 61.599 129.875 60.312 C127.038 57.981 124.285 55.59 121.562 53.125 C117.768 49.734 113.839 46.582 109.785 43.508 C107.938 42.062 107.938 42.062 105.938 40.062 C104.947 39.733 103.957 39.403 102.938 39.062 C102.607 38.403 102.278 37.743 101.938 37.062 C101.113 36.733 100.288 36.403 99.438 36.062 C96.938 35.062 96.938 35.062 95.938 33.062 C94.606 32.722 93.272 32.39 91.938 32.062 C90.125 31.123 88.334 30.14 86.562 29.125 C82.737 26.985 79.136 25.354 74.938 24.062 C73.947 23.072 73.947 23.072 72.938 22.062 C70.61 21.688 68.276 21.355 65.938 21.062 C65.278 20.733 64.618 20.402 63.938 20.062 C63.938 19.402 63.938 18.743 63.938 18.062 C62.824 18.341 62.824 18.341 61.688 18.625 C58.865 19.074 57.625 18.824 54.938 18.062 C54.231 17.886 53.525 17.709 52.797 17.527 C50.844 17.039 48.891 16.551 46.938 16.062 C46.938 15.402 46.938 14.743 46.938 14.062 C44.938 14.02 42.937 14.022 40.938 14.062 C40.607 14.392 40.278 14.723 39.938 15.062 C37.605 15.103 35.27 15.105 32.938 15.062 C32.938 14.072 32.938 13.082 32.938 12.062 C31.618 12.062 30.298 12.062 28.938 12.062 C28.938 12.723 28.938 13.382 28.938 14.062 C25.967 14.062 22.998 14.062 19.938 14.062 C19.938 13.402 19.938 12.743 19.938 12.062 C17.962 12.41 17.962 12.41 15.938 13.062 C15.607 13.723 15.278 14.382 14.938 15.062 C12.298 15.062 9.658 15.062 6.938 15.062 C6.938 14.402 6.938 13.743 6.938 13.062 C6.278 13.392 5.618 13.723 4.938 14.062 C2.938 14.102 0.937 14.106 -1.062 14.062 C-1.062 14.723 -1.062 15.382 -1.062 16.062 C-11.168 19.01 -11.168 19.01 -15.062 17.062 C-15.392 17.723 -15.722 18.382 -16.062 19.062 C-16.062 18.402 -16.062 17.743 -16.062 17.062 C-17.382 17.392 -18.702 17.723 -20.062 18.062 C-20.062 18.723 -20.062 19.382 -20.062 20.062 C-23.939 21.255 -26.979 22.062 -31.062 22.062 C-31.496 22.516 -31.929 22.97 -32.375 23.438 C-34.87 25.841 -37.759 26.151 -41.062 27.062 C-43.896 28.577 -43.896 28.577 -46.062 30.062 C-46.392 29.733 -46.722 29.402 -47.062 29.062 C-47.661 29.723 -48.259 30.382 -48.875 31.062 C-51.062 33.062 -51.062 33.062 -54.062 33.062 C-55.238 34.238 -55.238 34.238 -56.438 35.438 C-59.062 38.062 -59.062 38.062 -61.438 38.875 C-65.029 40.5 -66.865 43.061 -69.316 46.09 C-71.062 48.062 -71.062 48.062 -73.152 49.566 C-75.321 51.265 -75.951 52.572 -77.062 55.062 C-78.04 56.619 -79.041 58.16 -80.062 59.688 C-80.836 60.852 -80.836 60.852 -81.625 62.039 C-83.062 64.062 -83.062 64.062 -85.062 66.062 C-87.266 68.706 -88.429 70.684 -89.062 74.062 C-89.293 74.942 -89.293 74.942 -89.527 75.84 C-90.374 79.358 -90.888 82.933 -91.465 86.504 C-92.062 89.062 -92.062 89.062 -94.062 92.062 C-94.355 94.66 -94.355 94.66 -94.293 97.578 C-94.291 98.665 -94.289 99.751 -94.287 100.871 C-94.275 102.007 -94.263 103.142 -94.25 104.312 C-94.249 105.433 -94.249 106.553 -94.248 107.707 C-94.219 113.257 -94.05 118.597 -93.062 124.062 C-92.403 124.062 -91.743 124.062 -91.062 124.062 C-91.006 125.093 -91.006 125.093 -90.949 126.145 C-90.883 127.046 -90.818 127.947 -90.75 128.875 C-90.663 130.215 -90.663 130.215 -90.574 131.582 C-89.989 134.419 -89.169 135.177 -87.062 137.062 C-86.729 138.729 -86.396 140.396 -86.062 142.062 C-85.083 143.083 -84.084 144.084 -83.062 145.062 C-82.918 145.702 -82.774 146.341 -82.625 147 C-81.848 149.848 -80.19 151.06 -78.062 153.062 C-76.074 155.493 -75.067 157.049 -74.062 160.062 C-72.61 161.284 -71.153 162.502 -69.664 163.68 C-67.653 165.416 -66.117 167.464 -64.461 169.531 C-61.731 172.521 -58.335 174.708 -55.062 177.062 C-53.41 178.304 -51.764 179.554 -50.125 180.812 C-49.373 181.385 -48.622 181.957 -47.848 182.547 C-46.062 184.062 -46.062 184.062 -45.062 186.062 C-43.754 186.777 -42.415 187.436 -41.062 188.062 C-39.557 188.865 -38.057 189.678 -36.562 190.5 C-35.81 190.911 -35.057 191.322 -34.281 191.746 C-32.063 193.062 -30.027 194.388 -28.062 196.062 C-28.062 196.722 -28.062 197.382 -28.062 198.062 C-27.072 197.732 -26.082 197.403 -25.062 197.062 C-22.617 198.207 -22.617 198.207 -19.938 199.875 C-19.048 200.418 -18.159 200.96 -17.242 201.52 C-15.062 203.062 -15.062 203.062 -14.062 205.062 C-13.072 205.062 -12.082 205.062 -11.062 205.062 C-10.609 205.537 -10.155 206.011 -9.688 206.5 C-7.577 208.529 -5.912 208.576 -3.062 209.062 C-1 210 -1 210 0.938 211.062 C1.639 211.393 2.34 211.722 3.062 212.062 C4.938 213.062 4.938 213.062 6.938 215.062 C7.928 215.393 8.918 215.722 9.938 216.062 C12.938 217.062 12.938 217.062 14.938 219.062 C15.701 219.207 16.464 219.351 17.25 219.5 C20.329 220.144 22.282 221.403 24.938 223.062 C26.601 223.737 28.268 224.403 29.938 225.062 C32.623 226.36 35.282 227.705 37.938 229.062 C37.938 229.722 37.938 230.382 37.938 231.062 C38.515 230.856 39.092 230.65 39.688 230.438 C42.492 229.97 43.591 230.525 45.938 232.062 C46.268 232.722 46.597 233.382 46.938 234.062 C47.597 233.732 48.257 233.403 48.938 233.062 C51.5 234.104 52.964 235.089 54.938 237.062 C55.762 237.186 56.587 237.31 57.438 237.438 C59.938 238.062 59.938 238.062 61.25 240.125 C61.477 240.764 61.704 241.404 61.938 242.062 C62.68 241.815 63.423 241.567 64.188 241.312 C65.095 241.23 66.002 241.148 66.938 241.062 C69.25 243 69.25 243 70.938 245.062 C71.597 244.732 72.257 244.403 72.938 244.062 C74.679 245.016 76.418 245.977 78.117 247.004 C80.307 248.277 82.56 249.198 84.938 250.062 C84.938 251.053 84.938 252.043 84.938 253.062 C85.68 252.836 86.423 252.609 87.188 252.375 C89.938 252.062 89.938 252.062 91.938 253.375 C92.597 253.932 93.257 254.489 93.938 255.062 C94.824 255.393 95.711 255.722 96.625 256.062 C97.388 256.392 98.151 256.723 98.938 257.062 C99.268 258.053 99.597 259.043 99.938 260.062 C100.928 259.733 101.918 259.402 102.938 259.062 C105.533 260.085 106.948 261.073 108.938 263.062 C110.587 263.77 112.253 264.442 113.938 265.062 C113.938 266.053 113.938 267.043 113.938 268.062 C114.536 267.836 115.134 267.609 115.75 267.375 C116.472 267.272 117.194 267.169 117.938 267.062 C119.375 268.375 119.375 268.375 120.938 270.062 C122.596 270.75 124.262 271.418 125.938 272.062 C126.598 272.723 127.257 273.382 127.938 274.062 C128.598 274.392 129.257 274.723 129.938 275.062 C131.938 276.062 131.938 276.062 133.938 278.062 C135.265 278.74 136.599 279.406 137.938 280.062 C139.494 281.04 141.035 282.041 142.562 283.062 C143.339 283.578 144.115 284.094 144.914 284.625 C146.938 286.062 146.938 286.062 148.938 288.062 C150.26 289.077 151.595 290.075 152.938 291.062 C155.105 292.656 157.032 294.157 158.938 296.062 C159.975 296.901 161.017 297.734 162.062 298.562 C163.011 299.388 163.96 300.212 164.938 301.062 C164.938 301.723 164.938 302.382 164.938 303.062 C165.507 303.132 166.077 303.202 166.664 303.273 C169.809 304.365 171.151 306.177 173.312 308.688 C174.094 309.589 174.875 310.49 175.68 311.418 C176.425 312.291 177.17 313.163 177.938 314.062 C178.869 315.109 178.869 315.109 179.82 316.176 C182.124 318.774 183.828 320.734 184.938 324.062 C185.598 324.392 186.257 324.723 186.938 325.062 C187.562 327.625 187.562 327.625 187.938 330.062 C188.928 330.392 189.918 330.723 190.938 331.062 C191.292 332.39 191.623 333.725 191.938 335.062 C192.68 335.774 192.68 335.774 193.438 336.5 C195.399 338.543 195.434 340.329 195.938 343.062 C196.598 343.392 197.257 343.723 197.938 344.062 C198.082 344.991 198.226 345.919 198.375 346.875 C198.671 350.051 198.671 350.051 200.5 352 C202.58 354.985 202.142 357.522 201.938 361.062 C202.598 361.392 203.257 361.723 203.938 362.062 C205.634 366.835 206.185 371.043 206.168 376.086 C206.168 376.742 206.168 377.397 206.168 378.073 C206.164 380.194 206.146 382.316 206.125 384.438 C206.117 385.908 206.109 387.379 206.101 388.85 C206.038 398.048 205.873 407.244 205.562 416.438 C205.516 417.995 205.516 417.995 205.469 419.583 C205.431 420.533 205.392 421.483 205.352 422.461 C205.32 423.283 205.289 424.104 205.256 424.951 C204.938 427.062 204.938 427.062 202.938 430.062 C202.285 432.746 201.898 435.383 201.562 438.125 C200.938 441.062 200.938 441.062 199.375 443.125 C197.677 445.012 197.677 445.012 197.938 447.688 C197.938 448.471 197.938 449.255 197.938 450.062 C196.947 450.723 195.957 451.382 194.938 452.062 C194.597 454.061 194.264 456.061 193.938 458.062 C192.437 459.688 192.437 459.688 190.938 461.062 C190.793 461.661 190.649 462.259 190.5 462.875 C189.671 466.099 187.89 468.4 185.938 471.062 C185.277 471.392 184.618 471.723 183.938 472.062 C183.608 473.053 183.277 474.043 182.938 475.062 C182.277 475.392 181.618 475.723 180.938 476.062 C180.628 476.723 180.319 477.382 180 478.062 C178.938 480.062 178.938 480.062 175.938 481.062 C175.597 482.114 175.597 482.114 175.25 483.188 C173.238 487.594 169.655 490.062 165.938 493.062 C165.051 493.784 164.164 494.506 163.25 495.25 C162.487 495.848 161.724 496.446 160.938 497.062 C160.092 497.743 159.246 498.424 158.375 499.125 C157.571 499.764 156.766 500.404 155.938 501.062 C155.236 501.64 154.535 502.217 153.812 502.812 C151.938 504.062 151.938 504.062 148.938 504.062 C148.277 505.053 147.618 506.043 146.938 507.062 C145.947 507.062 144.957 507.062 143.938 507.062 C143.277 507.723 142.618 508.382 141.938 509.062 C141.277 509.723 140.618 510.382 139.938 511.062 C138.947 511.062 137.957 511.062 136.938 511.062 C136.504 511.516 136.071 511.97 135.625 512.438 C133.326 514.652 130.968 515.112 127.938 516.062 C126.329 516.867 126.329 516.867 124.688 517.688 C121.937 519.062 121.937 519.062 119.938 519.062 C119.154 519.537 118.37 520.011 117.562 520.5 C115.246 521.879 113.552 522.578 110.938 523.062 C110.938 522.403 110.938 521.742 110.938 521.062 C110.607 521.516 110.278 521.97 109.938 522.438 C105.827 525.777 100.113 526.386 94.938 526.062 C94.607 526.722 94.278 527.383 93.938 528.062 C91.614 528.457 89.278 528.785 86.938 529.062 C86.236 529.269 85.535 529.475 84.812 529.688 C82.327 530.185 80.372 529.671 77.938 529.062 C77.938 529.722 77.938 530.383 77.938 531.062 C76.48 531.257 75.022 531.443 73.562 531.625 C72.75 531.729 71.938 531.834 71.102 531.941 C68.937 532.062 68.937 532.062 66.938 531.062 C66.938 531.722 66.938 532.383 66.938 533.062 C63.967 532.732 60.998 532.403 57.938 532.062 C57.938 532.722 57.938 533.383 57.938 534.062 C57.278 534.062 56.618 534.062 55.938 534.062 C55.938 533.403 55.938 532.742 55.938 532.062 C51.977 532.393 48.018 532.722 43.938 533.062 C43.938 533.722 43.938 534.383 43.938 535.062 C29.158 536.125 14.717 536.207 -0.062 535.062 C-0.062 534.403 -0.062 533.742 -0.062 533.062 C-4.352 532.732 -8.643 532.403 -13.062 532.062 C-13.062 532.722 -13.062 533.383 -13.062 534.062 C-13.722 534.062 -14.382 534.062 -15.062 534.062 C-15.062 533.403 -15.062 532.742 -15.062 532.062 C-15.845 532.146 -16.627 532.23 -17.434 532.316 C-18.446 532.418 -19.457 532.52 -20.5 532.625 C-21.509 532.729 -22.519 532.834 -23.559 532.941 C-24.385 532.981 -25.211 533.021 -26.062 533.062 C-26.392 532.732 -26.722 532.403 -27.062 532.062 C-28.911 531.829 -30.767 531.649 -32.625 531.5 C-33.637 531.416 -34.649 531.332 -35.691 531.246 C-36.474 531.186 -37.256 531.125 -38.062 531.062 C-38.062 530.403 -38.062 529.742 -38.062 529.062 C-40.043 528.732 -42.022 528.403 -44.062 528.062 C-44.062 528.722 -44.062 529.383 -44.062 530.062 C-44.722 530.062 -45.382 530.062 -46.062 530.062 C-46.062 529.403 -46.062 528.742 -46.062 528.062 C-47.135 528.248 -48.207 528.434 -49.312 528.625 C-54.345 529.212 -54.345 529.212 -57.062 528.062 C-57.392 527.403 -57.722 526.742 -58.062 526.062 C-60.935 525.36 -63.179 524.814 -66.062 525.625 C-69.119 526.294 -71.242 525.253 -74.062 524.062 C-74.392 523.403 -74.722 522.742 -75.062 522.062 C-76.053 521.732 -77.043 521.403 -78.062 521.062 C-78.392 521.722 -78.722 522.383 -79.062 523.062 C-83.517 521.577 -83.517 521.577 -88.062 520.062 C-88.062 519.403 -88.062 518.742 -88.062 518.062 C-88.784 518.269 -89.506 518.475 -90.25 518.688 C-93.544 519.127 -95.151 518.599 -98.062 517.062 C-98.392 516.403 -98.722 515.742 -99.062 515.062 C-100.382 515.062 -101.702 515.062 -103.062 515.062 C-106.089 514.054 -107.793 513.332 -110.062 511.062 C-110.722 511.392 -111.382 511.723 -112.062 512.062 C-114.467 510.792 -116.751 509.481 -119.062 508.062 C-120.032 507.526 -121.001 506.99 -122 506.438 C-123.021 505.757 -123.021 505.757 -124.062 505.062 C-124.062 504.402 -124.062 503.743 -124.062 503.062 C-125.053 503.392 -126.042 503.723 -127.062 504.062 C-128.775 502.789 -130.439 501.448 -132.062 500.062 C-132.722 499.753 -133.382 499.444 -134.062 499.125 C-136.919 497.607 -138.85 495.394 -141.062 493.062 C-141.393 492.733 -141.722 492.402 -142.062 492.062 C-142.158 490.62 -142.184 489.174 -142.183 487.728 C-142.184 486.793 -142.186 485.858 -142.187 484.894 C-142.183 483.86 -142.18 482.825 -142.176 481.76 C-142.176 480.677 -142.176 479.594 -142.176 478.478 C-142.176 474.88 -142.168 471.282 -142.16 467.684 C-142.158 465.196 -142.157 462.709 -142.156 460.222 C-142.152 454.332 -142.145 448.443 -142.135 442.553 C-142.122 435.192 -142.117 427.831 -142.111 420.471 C-142.101 407.335 -142.084 394.199 -142.062 381.062 C-140.743 381.392 -139.423 381.723 -138.062 382.062 C-138.124 382.949 -138.186 383.836 -138.25 384.75 C-138.038 388.492 -137.015 389.939 -135.062 393.062 C-134.696 395.057 -134.361 397.057 -134.062 399.062 C-133.145 401.142 -132.078 403.036 -130.938 405 C-130.062 407.062 -130.062 407.062 -130.125 409.625 C-130.341 412.114 -130.341 412.114 -128.625 413.5 C-126.393 415.732 -126.572 418.007 -126.062 421.062 C-125.083 422.083 -124.084 423.084 -123.062 424.062 C-122.729 425.729 -122.396 427.396 -122.062 429.062 C-120.604 430.688 -120.604 430.688 -119.062 432.062 C-118.733 433.053 -118.403 434.043 -118.062 435.062 C-116.677 437.34 -115.268 439.581 -113.812 441.812 C-113.203 442.755 -113.203 442.755 -112.582 443.716 C-110.481 446.95 -108.339 450.136 -106.062 453.25 C-104.062 456.062 -104.062 456.062 -103.062 459.062 C-101.44 460.772 -99.768 462.436 -98.062 464.062 C-95.694 466.363 -93.905 468.299 -92.062 471.062 C-88.746 475.254 -85.38 478.876 -81.062 482.062 C-79.749 483.04 -78.436 484.019 -77.125 485 C-76.434 485.513 -75.743 486.026 -75.031 486.555 C-73.344 487.847 -71.726 489.228 -70.125 490.625 C-66.342 493.636 -62.313 495.79 -58.062 498.062 C-56.396 499.062 -54.729 500.062 -53.062 501.062 C-50.071 502.744 -47.068 504.406 -44.062 506.062 C-44.062 506.723 -44.062 507.382 -44.062 508.062 C-43.485 507.856 -42.908 507.65 -42.312 507.438 C-39.508 506.97 -38.409 507.525 -36.062 509.062 C-35.733 509.723 -35.403 510.382 -35.062 511.062 C-33.064 511.292 -31.065 511.518 -29.062 511.711 C-26.473 512.166 -25.038 513.38 -23.062 515.062 C-22.072 515.062 -21.082 515.062 -20.062 515.062 C-16.919 515.521 -14.081 516.056 -11.062 517.062 C-11.062 517.722 -11.062 518.383 -11.062 519.062 C-9.413 519.393 -7.762 519.722 -6.062 520.062 C-6.062 519.403 -6.062 518.742 -6.062 518.062 C-4.583 518.203 -3.104 518.35 -1.625 518.5 C-0.801 518.581 0.022 518.662 0.871 518.746 C2.938 519.062 2.938 519.062 3.938 520.062 C5.937 520.103 7.938 520.105 9.938 520.062 C9.938 520.722 9.938 521.383 9.938 522.062 C21.158 522.062 32.377 522.062 43.938 522.062 C43.938 521.403 43.938 520.742 43.938 520.062 C44.907 520.083 45.876 520.104 46.875 520.125 C49.812 520.419 49.812 520.419 50.938 519.062 C52.604 519.062 54.271 519.062 55.938 519.062 C57.281 518.772 58.62 518.453 59.938 518.062 C59.938 518.722 59.938 519.383 59.938 520.062 C61.587 519.732 63.238 519.403 64.938 519.062 C64.938 518.403 64.938 517.742 64.938 517.062 C66.333 516.749 67.729 516.437 69.125 516.125 C69.949 515.939 70.772 515.754 71.621 515.562 C73.3 515.2 74.991 514.895 76.688 514.625 C79.09 514.158 79.09 514.158 81.375 512.438 C84.649 510.68 86.413 511.161 89.938 512.062 C89.938 511.072 89.938 510.082 89.938 509.062 C91.587 508.402 93.238 507.743 94.938 507.062 C95.268 507.392 95.597 507.723 95.938 508.062 C96.711 507.196 96.711 507.196 97.5 506.312 C100.572 503.476 104.596 500.062 108.938 500.062 C110.296 498.755 111.624 497.415 112.938 496.062 C114.774 494.5 116.63 492.959 118.5 491.438 C119.45 490.661 120.4 489.885 121.379 489.086 C123.938 487.062 123.938 487.062 126.938 485.062 C127.639 483.747 128.301 482.41 128.938 481.062 C130.707 478.475 132.542 475.942 134.379 473.402 C136.082 471.068 136.082 471.068 136.938 468.062 C137.598 467.485 138.257 466.908 138.938 466.312 C141.581 463.339 141.513 460.951 141.938 457.062 C142.598 456.072 143.257 455.082 143.938 454.062 C144.989 450.091 145.241 446.036 145.559 441.953 C145.684 441.329 145.809 440.705 145.938 440.062 C146.598 439.733 147.257 439.402 147.938 439.062 C147.938 429.822 147.938 420.582 147.938 411.062 C147.277 411.062 146.618 411.062 145.938 411.062 C145.961 410.41 145.984 409.758 146.008 409.086 C146.113 404.009 146.063 399.785 143.938 395.062 C143.277 394.402 142.618 393.743 141.938 393.062 C141.601 391.017 141.497 389.006 141.379 386.938 C141.067 384.656 141.067 384.656 137.938 383.062 C137.669 382.217 137.401 381.371 137.125 380.5 C135.745 376.506 133.702 373.545 131.277 370.113 C129.938 368.062 129.938 368.062 128.938 365.062 C128.277 364.733 127.618 364.402 126.938 364.062 C126.608 363.072 126.277 362.082 125.938 361.062 C124.947 360.402 123.957 359.743 122.938 359.062 C122.608 358.072 122.277 357.082 121.938 356.062 C120.579 354.643 120.579 354.643 118.875 353.312 C117.933 352.533 117.933 352.533 116.973 351.738 C116.301 351.185 115.629 350.632 114.938 350.062 C107.693 343.859 107.693 343.859 104.625 340.625 C99.698 335.928 94.04 331.867 88.156 328.445 C85.938 327.062 85.938 327.062 84.938 325.062 C83.277 324.381 81.61 323.715 79.938 323.062 C79.278 322.402 78.618 321.743 77.938 321.062 C76.623 320.359 75.285 319.699 73.938 319.062 C68.168 316.293 68.168 316.293 65.938 314.062 C65.092 313.733 64.246 313.402 63.375 313.062 C60.938 312.062 60.938 312.062 59.938 310.062 C59.278 310.392 58.618 310.723 57.938 311.062 C55.938 309.688 55.938 309.688 53.938 308.062 C53.938 307.402 53.938 306.743 53.938 306.062 C53.381 306.31 52.824 306.558 52.25 306.812 C49.938 307.062 49.938 307.062 47.5 305.188 C46.654 304.486 45.809 303.785 44.938 303.062 C43.274 302.714 41.608 302.378 39.938 302.062 C38.947 300.577 38.947 300.577 37.938 299.062 C37.278 299.392 36.618 299.723 35.938 300.062 C33.375 299.021 31.911 298.036 29.938 296.062 C28.927 295.733 27.916 295.402 26.875 295.062 C23.938 294.062 23.938 294.062 22.938 292.062 C22.278 292.392 21.618 292.723 20.938 293.062 C17.988 291.921 16.053 290.39 13.938 288.062 C13.278 288.392 12.618 288.723 11.938 289.062 C9.813 288.125 9.813 288.125 7.938 287.062 C7.938 286.072 7.938 285.082 7.938 284.062 C6.855 284.403 6.855 284.403 5.75 284.75 C2.084 285.157 0.972 284.085 -2.062 282.062 C-3.304 281.521 -4.554 281.001 -5.812 280.5 C-9.062 279.062 -9.062 279.062 -10.062 277.062 C-10.722 277.392 -11.382 277.723 -12.062 278.062 C-15.798 276.591 -15.798 276.591 -17.062 274.062 C-18.032 273.918 -19.001 273.774 -20 273.625 C-21.011 273.439 -22.021 273.254 -23.062 273.062 C-24.053 271.577 -24.053 271.577 -25.062 270.062 C-25.722 270.392 -26.382 270.723 -27.062 271.062 C-28.806 270.108 -30.547 269.145 -32.246 268.113 C-34.182 266.932 -34.182 266.932 -36.938 265.938 C-39.062 265.062 -39.062 265.062 -40.062 263.062 C-41.724 262.703 -43.392 262.373 -45.062 262.062 C-49.082 260.304 -52.953 258.172 -56.062 255.062 C-57.053 254.732 -58.043 254.403 -59.062 254.062 C-59.722 253.403 -60.382 252.743 -61.062 252.062 C-61.887 251.732 -62.712 251.403 -63.562 251.062 C-66.062 250.062 -66.062 250.062 -68.062 248.062 C-68.743 247.898 -69.424 247.732 -70.125 247.562 C-70.764 247.398 -71.404 247.232 -72.062 247.062 C-72.392 246.403 -72.722 245.743 -73.062 245.062 C-73.887 244.732 -74.712 244.403 -75.562 244.062 C-78.062 243.062 -78.062 243.062 -79.062 241.062 C-79.81 240.767 -80.558 240.472 -81.328 240.168 C-84.339 238.951 -86.321 237.447 -88.812 235.375 C-92.082 232.684 -95.372 230.053 -98.75 227.5 C-102.862 224.316 -106.466 220.808 -110.062 217.062 C-111.244 215.904 -111.244 215.904 -112.449 214.723 C-115.161 211.962 -117.649 209.098 -120.125 206.125 C-120.962 205.126 -121.798 204.127 -122.66 203.098 C-125.968 198.918 -128.847 195.273 -130.062 190.062 C-131.048 188.718 -132.05 187.386 -133.062 186.062 C-135.593 181.683 -136.38 178.038 -137.062 173.062 C-137.722 172.732 -138.382 172.403 -139.062 172.062 C-139.837 168.036 -140.187 164.159 -140.062 160.062 C-140.722 159.732 -141.382 159.403 -142.062 159.062 C-143.433 155.5 -143.205 151.827 -143.062 148.062 C-142.732 147.732 -142.403 147.403 -142.062 147.062 C-141.974 144.469 -141.947 141.902 -141.965 139.309 C-141.966 138.533 -141.968 137.758 -141.969 136.959 C-141.975 134.472 -141.987 131.986 -142 129.5 C-142.005 127.818 -142.01 126.137 -142.014 124.455 C-142.025 120.324 -142.042 116.193 -142.062 112.062 C-141.072 111.567 -141.072 111.567 -140.062 111.062 C-140.086 110.375 -140.109 109.688 -140.133 108.98 C-140.151 108.079 -140.169 107.178 -140.188 106.25 C-140.211 105.357 -140.234 104.463 -140.258 103.543 C-140.062 101.062 -140.062 101.062 -138.062 98.062 C-137.406 95.875 -137.019 93.762 -136.688 91.5 C-136.062 89.062 -136.062 89.062 -134.562 87.688 C-132.715 85.994 -132.715 85.994 -132.562 82.562 C-132.033 78.857 -131.706 78.376 -129.062 76.062 C-128.701 74.737 -128.365 73.403 -128.062 72.062 C-127.072 71.072 -127.072 71.072 -126.062 70.062 C-125.774 69.305 -125.485 68.547 -125.188 67.766 C-123.888 64.643 -122.195 62.431 -120.062 59.812 C-119.361 58.941 -118.66 58.07 -117.938 57.172 C-116.062 55.062 -116.062 55.062 -114.062 54.062 C-113.733 53.072 -113.403 52.082 -113.062 51.062 C-109.907 47.628 -106.441 44.605 -102.883 41.602 C-101.681 40.586 -100.488 39.56 -99.305 38.523 C-95.385 35.096 -91.464 31.856 -87.062 29.062 C-86.072 29.392 -85.082 29.723 -84.062 30.062 C-84.042 29.485 -84.021 28.908 -84 28.312 C-82.7 25.192 -80.735 24.392 -77.852 22.797 C-76.062 22.062 -76.062 22.062 -73.062 22.062 C-72.049 21.076 -71.05 20.075 -70.062 19.062 C-68.16 18.184 -68.16 18.184 -66.125 17.5 C-63.321 16.519 -60.682 15.481 -58.062 14.062 C-57.567 14.558 -57.567 14.558 -57.062 15.062 C-56.66 14.578 -56.258 14.093 -55.844 13.594 C-53.157 11.284 -50.646 11.606 -47.219 11.469 C-44.585 10.973 -43.826 10.012 -42.062 8.062 C-38.708 7.03 -36.39 6.953 -33.062 8.062 C-32.733 7.402 -32.403 6.743 -32.062 6.062 C-31.567 6.558 -31.567 6.558 -31.062 7.062 C-30.733 6.402 -30.403 5.743 -30.062 5.062 C-27.738 4.675 -25.403 4.345 -23.062 4.062 C-22.072 3.733 -21.082 3.402 -20.062 3.062 C-20.062 3.723 -20.062 4.382 -20.062 5.062 C-17.092 4.567 -17.092 4.567 -14.062 4.062 C-14.062 3.402 -14.062 2.743 -14.062 2.062 C-13.352 2.002 -12.642 1.941 -11.91 1.879 C-10.532 1.753 -10.532 1.753 -9.125 1.625 C-8.208 1.544 -7.292 1.463 -6.348 1.379 C-3.254 0.951 -3.405 0.069 0 0 Z M-92.062 79.062 C-91.062 81.062 -91.062 81.062 -91.062 81.062 Z M-93.062 82.062 C-92.062 84.062 -92.062 84.062 -92.062 84.062 Z M-135.062 89.062 C-134.062 91.062 -134.062 91.062 -134.062 91.062 Z M-136.062 92.062 C-135.062 94.062 -135.062 94.062 -135.062 94.062 Z M-139.062 102.062 C-138.062 104.062 -138.062 104.062 -138.062 104.062 Z M-92.062 128.062 C-91.062 130.062 -91.062 130.062 -91.062 130.062 Z M-139.062 166.062 C-138.062 168.062 -138.062 168.062 -138.062 168.062 Z M-138.062 169.062 C-137.062 171.062 -137.062 171.062 -137.062 171.062 Z M-133.062 182.062 C-132.062 184.062 -132.062 184.062 -132.062 184.062 Z M198.938 352.062 C199.938 354.062 199.938 354.062 199.938 354.062 Z M199.938 355.062 C200.938 357.062 200.938 357.062 200.938 357.062 Z M202.938 365.062 C203.938 368.062 203.938 368.062 203.938 368.062 Z M203.938 369.062 C204.938 373.062 204.938 373.062 204.938 373.062 Z M141.938 388.062 C142.938 390.062 142.938 390.062 142.938 390.062 Z M-137.062 393.062 C-136.062 395.062 -136.062 395.062 -136.062 395.062 Z M-136.062 396.062 C-135.062 398.062 -135.062 398.062 -135.062 398.062 Z M-133.062 405.062 C-132.062 407.062 -132.062 407.062 -132.062 407.062 Z M202.938 423.062 C203.938 426.062 203.938 426.062 203.938 426.062 Z M199.938 436.062 C200.938 438.062 200.938 438.062 200.938 438.062 Z M198.938 439.062 C199.938 441.062 199.938 441.062 199.938 441.062 Z M145.938 445.062 C146.938 448.062 146.938 448.062 146.938 448.062 Z M142.938 457.062 C143.938 459.062 143.938 459.062 143.938 459.062 Z M146.938 411.062 C147.267 411.062 147.598 411.062 147.938 411.062 C147.938 420.303 147.938 429.543 147.938 439.062 C147.608 439.062 147.277 439.062 146.938 439.062 C146.938 429.822 146.938 420.582 146.938 411.062 Z M204.938 417.062 C205.268 417.062 205.597 417.062 205.938 417.062 C205.938 418.712 205.938 420.362 205.938 422.062 C205.607 422.062 205.278 422.062 204.938 422.062 C204.938 420.413 204.938 418.763 204.938 417.062 Z " fill="#26348C" transform="translate(351.0625,464.9375)"/>
<path d="M0 0 C0.99 0 1.98 0 3 0 C3.99 7.92 3.99 7.92 5 16 C5.66 16 6.32 16 7 16 C6.948 16.853 6.948 16.853 6.895 17.723 C6.698 23.322 7.654 26.839 10 32 C10.516 34.668 10.742 37.287 11 40 C11.42 44.522 11.42 44.522 14 48 C14.343 50.533 14.442 53.037 14.559 55.59 C15.074 58.405 15.942 59.118 18 61 C17.979 61.804 17.959 62.609 17.938 63.438 C17.735 66.109 17.735 66.109 19.688 68 C20.451 68.66 21.214 69.32 22 70 C24.666 72.602 26.93 74.895 29 78 C29.99 78 30.98 78 32 78 C34.012 78.631 36.014 79.294 38 80 C38 80.66 38 81.32 38 82 C38.701 81.794 39.402 81.587 40.125 81.375 C43.643 80.916 45.767 81.604 49 83 C49.33 83.66 49.66 84.32 50 85 C51.176 84.959 52.351 84.918 53.562 84.875 C57.724 84.86 61.065 85.688 65 87 C65 87.66 65 88.32 65 89 C66.65 89.33 68.3 89.66 70 90 C70.33 89.34 70.66 88.68 71 88 C71 88.66 71 89.32 71 90 C72.516 89.691 72.516 89.691 74.062 89.375 C78.495 88.953 80.861 89.564 85 91 C85 91.66 85 92.32 85 93 C87.31 93.33 89.62 93.66 92 94 C92 93.34 92 92.68 92 92 C92.99 92 93.98 92 95 92 C95 92.66 95 93.32 95 94 C95.66 94 96.32 94 97 94 C96.67 95.65 96.34 97.3 96 99 C93.674 99.381 91.339 99.713 89 100 C88.67 99.67 88.34 99.34 88 99 C86.121 99.025 86.121 99.025 84 99.312 C83.278 99.391 82.556 99.47 81.812 99.551 C80.915 99.773 80.915 99.773 80 100 C79.67 100.66 79.34 101.32 79 102 C77.004 102.295 75.004 102.58 72.996 102.777 C70.936 102.954 70.936 102.954 68.75 103.625 C66.572 104.092 65.097 103.674 63 103 C63 103.66 63 104.32 63 105 C53.9 107.45 53.9 107.45 51 106 C50.67 106.66 50.34 107.32 50 108 C49.34 107.67 48.68 107.34 48 107 C47.67 107.66 47.34 108.32 47 109 C45.258 109.633 45.258 109.633 43.125 110.125 C42.426 110.293 41.728 110.46 41.008 110.633 C39 111 39 111 36 111 C35.546 111.454 35.092 111.908 34.625 112.375 C33 114 33 114 30.625 114.938 C24.73 117.324 20.368 121.903 17.812 127.688 C17.544 128.451 17.276 129.214 17 130 C16.67 130.66 16.34 131.32 16 132 C15.423 134.096 14.962 136.192 14.535 138.324 C14.379 139.104 14.223 139.884 14.062 140.688 C13.909 141.475 13.756 142.263 13.598 143.074 C13.4 143.71 13.203 144.345 13 145 C12.34 145.33 11.68 145.66 11 146 C11 148.97 11 151.94 11 155 C10.34 155 9.68 155 9 155 C7.724 161.093 6.843 166.825 6.988 173.055 C7.003 175.497 6.729 177.668 6 180 C5.34 180.33 4.68 180.66 4 181 C3.532 183.356 3.532 183.356 3.375 186.062 C3.3 186.982 3.225 187.901 3.148 188.848 C3.075 189.913 3.075 189.913 3 191 C2.01 191 1.02 191 0 191 C-0.193 190.036 -0.387 189.072 -0.586 188.078 C-0.977 186.183 -0.977 186.183 -1.375 184.25 C-1.63 182.997 -1.885 181.744 -2.148 180.453 C-2.853 177.597 -3.66 175.563 -5 173 C-5.696 168.617 -6.139 164.443 -6 160 C-6.66 159.67 -7.32 159.34 -8 159 C-8.643 155.427 -9.014 151.862 -9.375 148.25 C-9.667 145.042 -9.667 145.042 -11.5 143.562 C-13.702 141.269 -13.42 138.938 -13.684 135.855 C-14.096 133.439 -15.229 132.617 -17 131 C-16.959 130.216 -16.918 129.433 -16.875 128.625 C-16.747 125.798 -16.747 125.798 -19.062 123.5 C-21.256 121.633 -23.403 119.963 -25.75 118.312 C-29 116 -29 116 -30 114 C-30.99 114.495 -30.99 114.495 -32 115 C-34.563 113.959 -36.026 112.974 -38 111 C-39.906 110.578 -39.906 110.578 -42 110.438 C-44.38 110.223 -45.847 110.077 -48 109 C-48 108.34 -48 107.68 -48 107 C-49.32 106.67 -50.64 106.34 -52 106 C-52.33 106.66 -52.66 107.32 -53 108 C-56.806 107.328 -60.352 106.273 -64 105 C-64 104.34 -64 103.68 -64 103 C-65.32 102.67 -66.64 102.34 -68 102 C-68 102.66 -68 103.32 -68 104 C-69.814 103.719 -71.626 103.425 -73.438 103.125 C-74.447 102.963 -75.456 102.8 -76.496 102.633 C-77.322 102.424 -78.149 102.215 -79 102 C-79.33 101.34 -79.66 100.68 -80 100 C-83.3 100 -86.6 100 -90 100 C-90 99.34 -90 98.68 -90 98 C-91.485 98.495 -91.485 98.495 -93 99 C-93.495 96.525 -93.495 96.525 -94 94 C-93.34 94 -92.68 94 -92 94 C-92 93.34 -92 92.68 -92 92 C-91.01 92 -90.02 92 -89 92 C-89 92.66 -89 93.32 -89 94 C-86.03 93.505 -86.03 93.505 -83 93 C-83 92.34 -83 91.68 -83 91 C-79.052 89.849 -75.083 89.402 -71 89 C-70.505 89.495 -70.505 89.495 -70 90 C-69.01 89.01 -69.01 89.01 -68 88 C-68 88.66 -68 89.32 -68 90 C-66.025 89.652 -66.025 89.652 -64 89 C-63.67 88.34 -63.34 87.68 -63 87 C-59.258 86.294 -55.812 86 -52 86 C-49.996 85.692 -47.995 85.363 -46 85 C-46 84.34 -46 83.68 -46 83 C-44.711 82.637 -43.418 82.285 -42.125 81.938 C-41.406 81.74 -40.686 81.543 -39.945 81.34 C-38 81 -38 81 -36 82 C-36 81.34 -36 80.68 -36 80 C-30.375 78 -30.375 78 -27 78 C-25.62 76.715 -24.296 75.37 -23 74 C-21.948 73.216 -20.896 72.433 -19.812 71.625 C-16.641 68.665 -16.198 67.247 -16 63 C-15.34 63 -14.68 63 -14 63 C-13.67 60.03 -13.34 57.06 -13 54 C-12.34 54 -11.68 54 -11 54 C-9.578 46.496 -9.578 46.496 -8.5 38.938 C-8 36 -8 36 -6 34 C-5.573 32.103 -5.573 32.103 -5.438 29.938 C-5.363 29.14 -5.288 28.342 -5.211 27.52 C-5.141 26.688 -5.072 25.857 -5 25 C-4.862 23.374 -4.717 21.749 -4.562 20.125 C-4.502 19.406 -4.441 18.686 -4.379 17.945 C-4 16 -4 16 -2 13 C-1.553 10.784 -1.185 8.552 -0.875 6.312 C-0.707 5.133 -0.54 3.954 -0.367 2.738 C-0.185 1.383 -0.185 1.383 0 0 Z M-4 20 C-3 24 -3 24 -3 24 Z M8 32 C9 35 9 35 9 35 Z M9 36 C10 39 10 39 10 39 Z M-8 39 C-7 42 -7 42 -7 42 Z M12 49 C13 51 13 51 13 51 Z M13 52 C14 54 14 54 14 54 Z M-13 136 C-12 138 -12 138 -12 138 Z M13 137 C14 139 14 139 14 139 Z M-12 139 C-11 141 -11 141 -11 141 Z M12 140 C13 142 13 142 13 142 Z M-8 153 C-7 155 -7 155 -7 155 Z M-5 166 C-4 169 -4 169 -4 169 Z M-4 170 C-3 173 -3 173 -3 173 Z M5 171 C6 175 6 175 6 175 Z M7 21 C8 25 8 25 8 25 Z M-6 25 C-5 29 -5 29 -5 29 Z M7 166 C8 170 8 170 8 170 Z " fill="#26338B" transform="translate(1170,807)"/>
<path d="M0 0 C0.33 0 0.66 0 1 0 C1 114.84 1 229.68 1 348 C0.67 348 0.34 348 0 348 C0 233.16 0 118.32 0 0 Z " fill="#000181" transform="translate(612,557)"/>
<path d="M0 0 C5.802 0.01 11.603 0.015 17.405 0.02 C28.656 0.03 39.908 0.047 51.159 0.069 C50.829 1.059 50.499 2.049 50.159 3.069 C43.484 3.094 36.809 3.111 30.133 3.124 C27.861 3.129 25.588 3.135 23.315 3.144 C20.056 3.156 16.797 3.162 13.538 3.166 C12.515 3.171 11.492 3.177 10.438 3.182 C9.497 3.182 8.556 3.182 7.587 3.182 C6.754 3.184 5.922 3.187 5.064 3.189 C3.159 3.069 3.159 3.069 2.159 2.069 C0.764 2.005 -0.634 2.012 -2.03 2.047 C-2.93 2.067 -3.831 2.087 -4.758 2.108 C-6.248 2.148 -6.248 2.148 -7.767 2.19 C-9.908 2.239 -12.05 2.288 -14.192 2.336 C-15.328 2.364 -16.463 2.392 -17.634 2.421 C-36.787 2.886 -55.932 3.17 -75.091 3.131 C-76.051 3.129 -77.012 3.127 -78.001 3.126 C-83.281 3.114 -88.561 3.095 -93.841 3.069 C-93.841 2.409 -93.841 1.749 -93.841 1.069 C-62.556 0.179 -31.297 -0.063 0 0 Z " fill="#030340" transform="translate(1039.8410034179688,986.9313354492188)"/>
<path d="M0 0 C0.33 0 0.66 0 1 0 C1 44.55 1 89.1 1 135 C0.67 135 0.34 135 0 135 C0 90.45 0 45.9 0 0 Z " fill="#000003" transform="translate(714,850)"/>
<path d="M0 0 C0.33 0 0.66 0 1 0 C1 35.97 1 71.94 1 109 C0.67 109 0.34 109 0 109 C0 73.03 0 37.06 0 0 Z " fill="#00545D" transform="translate(207,847)"/>
<path d="M0 0 C0.33 0 0.66 0 1 0 C1 33.99 1 67.98 1 103 C0.67 103 0.34 103 0 103 C0 69.01 0 35.02 0 0 Z " fill="#1F2D7F" transform="translate(529,498)"/>
<path d="M0 0 C-1.477 3.452 -3.438 5.65 -6.125 8.25 C-6.849 8.956 -7.574 9.663 -8.32 10.391 C-8.875 10.922 -9.429 11.453 -10 12 C-10.33 11.01 -10.66 10.02 -11 9 C-9.548 7.494 -8.088 5.995 -6.625 4.5 C-5.407 3.247 -5.407 3.247 -4.164 1.969 C-2 0 -2 0 0 0 Z M-13 11 C-12.34 11.66 -11.68 12.32 -11 13 C-12.32 13.99 -13.64 14.98 -15 16 C-15 13 -15 13 -13 11 Z M-17 15 C-16.34 15.66 -15.68 16.32 -15 17 C-16.485 17.99 -16.485 17.99 -18 19 C-18 16 -18 16 -17 15 Z M-21 19 C-20.34 19.66 -19.68 20.32 -19 21 C-20.623 22.709 -22.293 24.374 -24 26 C-24.66 26 -25.32 26 -26 26 C-26 26.66 -26 27.32 -26 28 C-26.66 28 -27.32 28 -28 28 C-26.445 24.183 -23.964 21.808 -21 19 Z M-29 28 C-29 28.99 -29 29.98 -29 31 C-31 32.688 -31 32.688 -33 34 C-31.848 31.532 -30.952 29.952 -29 28 Z " fill="#0B0F7F" transform="translate(778,706)"/>
<path d="M0 0 C0.99 0 1.98 0 3 0 C3 0.66 3 1.32 3 2 C3.66 2 4.32 2 5 2 C4.67 3.65 4.34 5.3 4 7 C1.69 7.33 -0.62 7.66 -3 8 C-1.125 2.25 -1.125 2.25 0 0 Z " fill="#131A8C" transform="translate(1262,899)"/>
<path d="M0 0 C0.99 0 1.98 0 3 0 C3.124 0.784 3.247 1.567 3.375 2.375 C3.791 5.141 3.791 5.141 6 7 C4.68 7.33 3.36 7.66 2 8 C2 7.34 2 6.68 2 6 C1.01 6.33 0.02 6.66 -1 7 C-1.33 5.35 -1.66 3.7 -2 2 C-1.34 2 -0.68 2 0 2 C0 1.34 0 0.68 0 0 Z " fill="#151C98" transform="translate(1078,899)"/>
<path d="M0 0 C0.66 0.66 1.32 1.32 2 2 C0.515 2.99 0.515 2.99 -1 4 C-0.67 2.68 -0.34 1.36 0 0 Z M-3 3 C-2.34 3.66 -1.68 4.32 -1 5 C-4.465 7.97 -4.465 7.97 -8 11 C-6.952 6.808 -6.082 5.784 -3 3 Z M-10 10 C-9.34 10.66 -8.68 11.32 -8 12 C-8.99 12.33 -9.98 12.66 -11 13 C-10.67 12.01 -10.34 11.02 -10 10 Z " fill="#0E1480" transform="translate(248,506)"/>
<path d="M0 0 C0.33 0 0.66 0 1 0 C1 7.59 1 15.18 1 23 C0.67 23 0.34 23 0 23 C0 15.41 0 7.82 0 0 Z " fill="#00295F" transform="translate(207,590)"/>
<path d="M0 0 C0.33 0 0.66 0 1 0 C1 7.59 1 15.18 1 23 C0.67 23 0.34 23 0 23 C0 15.41 0 7.82 0 0 Z " fill="#0007AE" transform="translate(257,558)"/>
<path d="M0 0 C0.99 0 1.98 0 3 0 C3 2.31 3 4.62 3 7 C1.02 7.99 1.02 7.99 -1 9 C-0.67 6.03 -0.34 3.06 0 0 Z " fill="#203080" transform="translate(1170,807)"/>
<path d="M0 0 C2.97 0.33 5.94 0.66 9 1 C9 1.66 9 2.32 9 3 C6.03 2.67 3.06 2.34 0 2 C0 1.34 0 0.68 0 0 Z " fill="#00004A" transform="translate(1243,896)"/>
<path d="M0 0 C0.33 0 0.66 0 1 0 C1 2.31 1 4.62 1 7 C0.01 7 -0.98 7 -2 7 C-1.125 1.125 -1.125 1.125 0 0 Z " fill="#212D7F" transform="translate(1172,991)"/>
<path d="M0 0 C0.99 0 1.98 0 3 0 C3 2.31 3 4.62 3 7 C2.34 7 1.68 7 1 7 C0.67 4.69 0.34 2.38 0 0 Z " fill="#24308C" transform="translate(525,595)"/>
<path d="M0 0 C0.33 0 0.66 0 1 0 C1 4.62 1 9.24 1 14 C0.67 14 0.34 14 0 14 C0 9.38 0 4.76 0 0 Z " fill="#0000EC" transform="translate(558,852)"/>
<path d="M0 0 C0.33 0 0.66 0 1 0 C1 4.29 1 8.58 1 13 C0.67 13 0.34 13 0 13 C0 8.71 0 4.42 0 0 Z " fill="#0000C4" transform="translate(557,868)"/>
<path d="M0 0 C0.33 0 0.66 0 1 0 C1 3.63 1 7.26 1 11 C0.67 11 0.34 11 0 11 C0 7.37 0 3.74 0 0 Z " fill="#0000A2" transform="translate(557,840)"/>
<path d="M0 0 C0.33 0 0.66 0 1 0 C1 2.97 1 5.94 1 9 C0.67 9 0.34 9 0 9 C0 6.03 0 3.06 0 0 Z " fill="#2C2C6F" transform="translate(1092,978)"/>
<path d="M0 0 C0.33 0 0.66 0 1 0 C1 2.97 1 5.94 1 9 C0.67 9 0.34 9 0 9 C0 6.03 0 3.06 0 0 Z " fill="#2A2968" transform="translate(1092,477)"/>
<path d="M0 0 C0.33 0 0.66 0 1 0 C1 2.64 1 5.28 1 8 C0.67 8 0.34 8 0 8 C0 5.36 0 2.72 0 0 Z " fill="#1B27A9" transform="translate(208,582)"/>
<path d="M0 0 C0.33 0 0.66 0 1 0 C1 2.31 1 4.62 1 7 C0.67 7 0.34 7 0 7 C0 4.69 0 2.38 0 0 Z " fill="#00006D" transform="translate(1174,988)"/>
<path d="M0 0 C0.33 0 0.66 0 1 0 C1 1.98 1 3.96 1 6 C0.67 6 0.34 6 0 6 C0 4.02 0 2.04 0 0 Z " fill="#000000" transform="translate(564,980)"/>
<path d="M0 0 C0.33 0 0.66 0 1 0 C1 1.98 1 3.96 1 6 C0.67 6 0.34 6 0 6 C0 4.02 0 2.04 0 0 Z " fill="#0000D4" transform="translate(1174,811)"/>
<path d="M0 0 C0.33 0 0.66 0 1 0 C1 1.98 1 3.96 1 6 C0.67 6 0.34 6 0 6 C0 4.02 0 2.04 0 0 Z " fill="#0A1870" transform="translate(1045,543)"/>
<path d="M0 0 C0.33 0 0.66 0 1 0 C1 1.98 1 3.96 1 6 C0.67 6 0.34 6 0 6 C0 4.02 0 2.04 0 0 Z " fill="#000000" transform="translate(564,479)"/>
<path d="M0 0 C0.33 0 0.66 0 1 0 C1 1.65 1 3.3 1 5 C0.67 5 0.34 5 0 5 C0 3.35 0 1.7 0 0 Z " fill="#171AA2" transform="translate(1168,992)"/>
<path d="M0 0 C0.33 0 0.66 0 1 0 C1 1.65 1 3.3 1 5 C0.67 5 0.34 5 0 5 C0 3.35 0 1.7 0 0 Z " fill="#000099" transform="translate(1046,919)"/>
<path d="M0 0 C0.33 0 0.66 0 1 0 C1 1.65 1 3.3 1 5 C0.67 5 0.34 5 0 5 C0 3.35 0 1.7 0 0 Z " fill="#112271" transform="translate(1175,818)"/>
<path d="M0 0 C0.33 0 0.66 0 1 0 C1 1.65 1 3.3 1 5 C0.67 5 0.34 5 0 5 C0 3.35 0 1.7 0 0 Z " fill="#00115F" transform="translate(1167,814)"/>
<path d="M0 0 C0.33 0 0.66 0 1 0 C1 1.65 1 3.3 1 5 C0.67 5 0.34 5 0 5 C0 3.35 0 1.7 0 0 Z " fill="#161794" transform="translate(1168,809)"/>
<path d="M0 0 C1 4 1 4 1 4 Z " fill="#00007F" transform="translate(1167,988)"/>
<path d="M0 0 C1 4 1 4 1 4 Z " fill="#00007F" transform="translate(1178,966)"/>
<path d="M0 0 C1 4 1 4 1 4 Z " fill="#152B5A" transform="translate(1179,962)"/>
<path d="M0 0 C1 4 1 4 1 4 Z " fill="#0F2595" transform="translate(496,866)"/>
<path d="M0 0 C1 4 1 4 1 4 Z " fill="#00007F" transform="translate(1163,836)"/>
<path d="M0 0 C1 4 1 4 1 4 Z " fill="#00007F" transform="translate(258,585)"/>
<path d="M0 0 C1 4 1 4 1 4 Z " fill="#0F2595" transform="translate(609,535)"/>
<path d="" fill="#00009F" transform="translate(0,0)"/>
<path d="" fill="#0000AA" transform="translate(0,0)"/>
<path d="" fill="#001DC9" transform="translate(0,0)"/>
<path d="" fill="#000055" transform="translate(0,0)"/>
<path d="" fill="#0000AA" transform="translate(0,0)"/>
<path d="" fill="#00002A" transform="translate(0,0)"/>
<path d="" fill="#0000AA" transform="translate(0,0)"/>
<path d="" fill="#082569" transform="translate(0,0)"/>
<path d="" fill="#0000AA" transform="translate(0,0)"/>
<path d="" fill="#001DC9" transform="translate(0,0)"/>
<path d="" fill="#001D74" transform="translate(0,0)"/>
<path d="" fill="#000055" transform="translate(0,0)"/>
<path d="" fill="#000055" transform="translate(0,0)"/>
<path d="" fill="#0000AA" transform="translate(0,0)"/>
<path d="" fill="#0000AA" transform="translate(0,0)"/>
<path d="" fill="#0000AA" transform="translate(0,0)"/>
<path d="" fill="#00007F" transform="translate(0,0)"/>
<path d="" fill="#00007F" transform="translate(0,0)"/>
<path d="" fill="#00007F" transform="translate(0,0)"/>
<path d="" fill="#0000FF" transform="translate(0,0)"/>
<path d="" fill="#00007F" transform="translate(0,0)"/>
<path d="" fill="#00007F" transform="translate(0,0)"/>
<path d="" fill="#000000" transform="translate(0,0)"/>
<path d="" fill="#00007F" transform="translate(0,0)"/>
<path d="" fill="#000000" transform="translate(0,0)"/>
<path d="" fill="#00007F" transform="translate(0,0)"/>
<path d="" fill="#00007F" transform="translate(0,0)"/>
<path d="" fill="#000000" transform="translate(0,0)"/>
<path d="" fill="#000000" transform="translate(0,0)"/>
<path d="" fill="#00007F" transform="translate(0,0)"/>
<path d="" fill="#00007F" transform="translate(0,0)"/>
<path d="" fill="#000040" transform="translate(0,0)"/>
<path d="" fill="#00007F" transform="translate(0,0)"/>
<path d="" fill="#000000" transform="translate(0,0)"/>
<path d="" fill="#0000FF" transform="translate(0,0)"/>
<path d="" fill="#000000" transform="translate(0,0)"/>
<path d="" fill="#000000" transform="translate(0,0)"/>
<path d="" fill="#0000FF" transform="translate(0,0)"/>
<path d="" fill="#000000" transform="translate(0,0)"/>
<path d="" fill="#000000" transform="translate(0,0)"/>
<path d="" fill="#000000" transform="translate(0,0)"/>
<path d="" fill="#000000" transform="translate(0,0)"/>
<path d="" fill="#000000" transform="translate(0,0)"/>
<path d="" fill="#000000" transform="translate(0,0)"/>
<path d="" fill="#0000FF" transform="translate(0,0)"/>
<path d="" fill="#000000" transform="translate(0,0)"/>
<path d="" fill="#000000" transform="translate(0,0)"/>
<path d="" fill="#000000" transform="translate(0,0)"/>
<path d="" fill="#000000" transform="translate(0,0)"/>
<path d="" fill="#000000" transform="translate(0,0)"/>
</svg>
